<svg version="1.0" xmlns="http://www.w3.org/2000/svg" xmlns:xlink="http://www.w3.org/1999/xlink" viewBox="0 0 254.286 132.857" xml:space="preserve">
  <g id="Capa_2"/>
  <g id="Capa_1">
    <g>
      <g>
        <path fill="#71408D" d="M97.986,104.592c0,13.676,6.41,15.433,1.994,15.433s-8.975-9.259-8.975-18.472 c0-1.852,0.095-3.656,0.285-5.461c-2.47,1.71-5.509,3.467-8.072,3.989c-0.238,0.095-0.713,0.143-1.425,0.143 c-0.285,0-0.476-0.048-0.57-0.143c-1.994-0.617-5.271-4.179-6.933-9.497c-3.419,2.991-6.458,5.224-9.117,5.224 c-2.85,0-6.79-7.313-0.285-7.313c2.09,0,4.892-1.662,8.405-3.894c0-0.189,0-0.38,0-0.617c0-14.245,15.527-29.773,21.416-29.773 c3.988,0,6.933,1.853,6.933,4.653c0,1.473-16.763,6.031-21.701,21.559c5.746-3.371,12.536-6.553,20.039-6.647 c0.048,0,0.048-0.048,0.095-0.048c0.048,0,0.096,0,0.143,0.048c0.048-0.048,0.143-0.048,0.237-0.048v0.048 c2.47,0.095,3.895,1.14,3.895,3.323C104.349,78.333,97.986,88.067,97.986,104.592z M97.749,75.816 c-7.171,0.569-13.486,5.793-18.994,10.731c-0.095,0.949-0.143,1.946-0.143,2.944c0,4.226,2.279,6.979,3.704,8.642 c2.563-0.569,6.79-4.179,9.924-7.835C93.617,83.983,95.849,78.617,97.749,75.816z"/>
        <path fill="#71408D" d="M134.544,82.227c-0.238,1.092-4.892,17.427-8.928,18.852c-0.143,0.095-0.428,0.143-0.76,0.143 c-4.464,0-5.556-9.26-5.889-9.26c-0.379,0-2.184,7.218-5.936,7.218c-3.751,0-6.79-2.517-6.79-9.117 c0-6.221,3.419-16.383,10.446-16.383c4.892,0,8.357,0,8.357,6.934c0,0.664-1.709,1.234-1.709,0.189 c0-1.092-0.332-4.938-2.09-4.938c-4.653,0-8.784,8.452-8.784,17.189c0,1.758,0.189,4.606,1.614,4.606s4.416-9.925,4.416-12.394 c0-0.95,0-2.659,2.85-2.659c2.896,0,4.084,1.329,4.084,2.327c0,0.284,0,0.521,0,0.76c0.142,3.229-0.143,12.346,1.424,12.346 c0.997,0,6.221-15.006,6.553-16.05C133.689,80.992,134.782,81.039,134.544,82.227z"/>
        <path fill="#71408D" d="M148.786,105.114c-2.327,0.143-6.411-5.128-7.123-12.536c-0.665,4.464-1.852,10.02-3.656,10.731 c-0.048,0.048-0.475,0.096-0.522,0.096c-2.611,0-6.838-3.989-7.17-12.062c-0.428-8.072,2.611-28.443,2.469-30.581 c-0.143-3.562,5.461-1.52,5.604,1.235c0.143,2.754-2.802,24.407-2.517,30.817c0.237,5.413,1.282,8.073,1.852,9.402 c1.188-0.143,3.562-14.245,3.941-16.572c0.475-8.357,2.042-19.089,1.947-20.847c-0.143-3.561,5.46-1.472,5.603,1.235 c0.143,2.802-2.326,20.371-2.041,26.781C147.646,102.598,151.302,105.02,148.786,105.114z"/>
        <path fill="#71408D" d="M179.41,82.227c-0.237,1.092-4.891,17.427-8.927,18.852c-0.143,0.095-0.428,0.143-0.76,0.143 c-4.464,0-5.556-9.26-5.888-9.26c-0.381,0-2.185,7.218-5.937,7.218c-3.751,0-6.79-2.517-6.79-9.117 c0-6.221,3.419-16.383,10.447-16.383c4.891,0,8.357,0,8.357,6.934c0,0.664-1.71,1.234-1.71,0.189 c0-1.092-0.332-4.938-2.089-4.938c-4.654,0-8.785,8.452-8.785,17.189c0,1.758,0.189,4.606,1.614,4.606s4.416-9.925,4.416-12.394 c0-0.95,0-2.659,2.85-2.659c2.896,0,4.083,1.329,4.083,2.327c0,0.284,0,0.521,0,0.76c0.143,3.229-0.142,12.346,1.425,12.346 c0.997,0,6.221-15.006,6.554-16.05C178.555,80.992,179.648,81.039,179.41,82.227z"/>
        <path fill="#71408D" d="M194.174,75.958c0,3.941-0.997,7.74-3.372,7.74c-2.422,0-4.179-0.949-4.179-1.994 s0.808-5.128,0.808-5.128s-5.509,10.969-5.889,17.712c0.522,3.466,1.235,4.368,1.235,5.176c0,1.282-7.788,3.656-7.788-14.673 c0-4.844,0.617-11.919,2.232-11.919c3.181,0,4.653,1.662,4.653,3.656c0,1.946-0.95,4.321-0.95,7.93 c0,1.757,0.048,3.276,0.143,4.606c1.234-6.221,5.224-16.905,7.408-16.905C191.087,72.159,194.174,72.018,194.174,75.958z"/>
        <path fill="#71408D" d="M215.159,84.934c0,18.234,3.229,18.756,1.093,18.756c-6.126,0-7.075-10.114-7.408-10.114 c-0.38,0-2.802,5.651-6.553,5.651c-3.799,0-7.598-2.518-7.598-9.117c0-6.221,3.419-16.431,10.447-16.431 c2.611,0,4.226,0,5.176,1.093c0.949-7.123,2.231-14.673,2.231-14.91c0-0.381,0.048-1.141,0.95-1.141 c0.949,0,5.128,1.425,5.128,3.135C218.625,63.564,215.159,74.392,215.159,84.934z M209.508,81.372 c-0.76,0.047-1.52-0.096-1.52-0.57c0-1.045,1.092-4.891-0.665-4.891c-3.514,0-6.41,8.404-6.41,17.142 c0,1.758,0.997,4.606,2.422,4.606c1.424,0,5.936-9.925,5.936-12.394C209.271,84.269,209.366,82.938,209.508,81.372z"/>
        <path fill="#71408D" d="M235.574,83.841c0,7.266-2.422,15.528-8.643,15.528c-5.603,0-6.933-6.363-6.933-11.159 c0-4.464,0.854-9.973,4.321-10.732c1.14-3.181,4.036-3.514,6.269-3.514C233.342,73.964,235.574,76.623,235.574,83.841z M230.255,76.86c-1.52,0-0.902,4.986-2.611,6.506c0.047,5.745-1.282,13.485,1.662,13.485 C232.297,96.852,235.336,76.86,230.255,76.86z"/>
      </g>
    </g>
    <g>
      <path fill="#653989" d="M17.605,44.69l-2.336,9.401h-1.14l9.629-39.94h1.766l9.857,39.94h-1.254l-2.336-9.401H17.605z M17.833,43.551h13.731l-6.951-27.918L17.833,43.551z"/>
      <path fill="#653989" d="M39.767,54.092V14.208h1.253v38.688h13.39v1.196H39.767z"/>
      <path fill="#653989" d="M58.681,24.008c0-5.583,2.394-10.084,8.433-10.084c6.153,0,8.547,4.501,8.547,10.084v20.284 c0,5.584-2.394,10.085-8.547,10.085c-6.039,0-8.433-4.501-8.433-10.085V24.008z M59.935,44.349c0,4.9,1.88,8.889,7.179,8.889 c5.356,0,7.293-3.988,7.293-8.889V23.951c0-4.899-1.937-8.888-7.293-8.888c-5.299,0-7.179,3.988-7.179,8.888V44.349z"/>
      <path fill="#653989" d="M81.357,54.092h-1.196V14.208h1.766l14.017,37.32v-37.32h1.196v39.884h-1.538L81.357,16.031V54.092z"/>
      <path fill="#653989" d="M110.015,14.208c6.097,0,8.66,4.273,8.66,9.972v19.998c0,5.641-2.563,9.914-8.604,9.914h-8.375V14.208 H110.015z M110.015,52.896c5.355,0,7.407-3.704,7.407-8.66V24.122c0-5.014-2.108-8.717-7.407-8.717h-7.065v37.49H110.015z"/>
      <path fill="#653989" d="M131.039,14.208c5.925,0,8.204,3.476,8.204,8.945v3.59c0,4.9-1.938,7.578-6.324,8.376 c4.444,0.684,6.324,3.589,6.324,7.977v6.267c0,1.539,0.171,3.476,1.083,4.729h-1.368c-0.797-1.254-0.969-3.02-0.969-4.729v-6.267 c0-5.869-3.532-7.407-8.717-7.407h-4.9v18.403h-1.253V14.208H131.039z M129.272,34.492c5.526,0,8.717-1.425,8.717-7.578v-3.646 c0-4.843-1.88-7.862-7.008-7.862h-6.609v19.087H129.272z"/>
      <path fill="#653989" d="M148.073,44.69l-2.336,9.401h-1.14l9.629-39.94h1.766l9.857,39.94h-1.254l-2.336-9.401H148.073z M148.3,43.551h13.731l-6.951-27.918L148.3,43.551z"/>
    </g>
  </g>
</svg>