<svg version="1.0" xmlns="http://www.w3.org/2000/svg" xmlns:xlink="http://www.w3.org/1999/xlink" x="0px" y="0px" viewBox="0 0 226.571 108.427" xml:space="preserve">
  <g id="Capa_2">
    <g>
      <g>
        <path fill="#54A4CE" d="M52.849,56.977c-2.992,0.38-8.785-4.844-10.21-15.813c-0.475-3.704-0.664-8.167-0.712-12.631 c-1.14,0.665-2.944,1.757-5.129,3.086C31.861,44.82,24.88,60.206,19.466,59.589c-6.125-0.713-7.218-3.704-6.79-7.408 c0.76-6.601,10.067-13.913,18.282-19.184c2.943-7.123,5.461-14.151,6.838-18.425c-8.168,3.229-17,7.55-17.57,12.299 c-0.189,1.757-3.182-0.19-2.849-2.991c0.997-8.928,19.802-12.821,24.55-15.576c0.048-4.083,6.743-2.563,7.218,1.045 c0.475,3.799-0.617,24.598,0.475,33.287C51.376,56.027,55.888,56.597,52.849,56.977z M29.582,36.368 c-7.408,5.081-15.101,11.443-15.623,16.05c0,0-0.522,3.941,2.042,4.227C19.657,57.071,24.927,47.1,29.582,36.368z M41.975,16.52 c-0.855,2.896-2.327,7.36-4.179,12.394c1.709-0.95,3.086-1.71,4.131-2.232C41.879,23.072,41.927,19.511,41.975,16.52z"/>
        <path fill="#54A4CE" d="M62.531,14.763c0.143,2.991-2.754,24.074-2.469,30.96c0.522,10.542,4.464,11.302,1.757,11.396 c-2.659,0.143-7.36-4.321-7.74-12.964c-0.427-8.689,2.564-28.396,2.422-30.723C56.358,9.586,62.389,11.818,62.531,14.763z"/>
        <path fill="#54A4CE" d="M79.862,37.982c0,7.266-2.422,15.528-8.642,15.528c-5.604,0-6.934-6.363-6.934-11.159 c0-4.464,0.855-9.973,4.321-10.732c1.14-3.181,4.036-3.514,6.269-3.514C77.63,28.105,79.862,30.765,79.862,37.982z M74.543,31.002c-1.52,0-0.902,4.986-2.611,6.506c0.048,5.745-1.282,13.485,1.662,13.485 C76.585,50.993,79.625,31.002,74.543,31.002z"/>
        <path fill="#54A4CE" d="M102.224,45.771c0,7.17,0.902,6.742,0.902,8.119c0,1.378-7.17,0.381-7.17-7.645 c0-5.271,0.997-11.587,1.662-15.243c-2.09,5.271-5.698,19.042-7.551,21.749c-0.047,0.237-0.142,0.379-0.379,0.475 c-0.048,0-0.096,0-0.143,0c-0.143,0.047-0.333,0.095-0.57,0.095c-6.933,0-6.268-16.146-6.268-16.857 c0-0.854-0.522-0.522-0.522-1.377s6.98-1.329,6.98,1.757c0,0.997-0.19,6.126-0.19,7.692c0,1.235,0.095,2.327,0.237,3.276 c1.805-6.03,5.889-18.472,9.308-20.418c0.095-0.096,0.237-0.143,0.38-0.19c0.189-0.047,0.332-0.095,0.522-0.095 c0.284,0,0.569,0,0.902,0.048c0.76,0,1.187,0.095,1.329,0.237c1.52,0.427,2.991,1.329,2.991,2.469 C104.646,32.142,102.224,42.161,102.224,45.771z"/>
        <path fill="#54A4CE" d="M126.77,39.075c0,18.234,3.229,18.756,1.093,18.756c-6.126,0-7.075-10.114-7.408-10.114 c-0.38,0-2.802,5.651-6.553,5.651c-3.799,0-7.598-2.518-7.598-9.117c0-6.221,3.419-16.431,10.447-16.431 c2.611,0,4.226,0,5.176,1.093c0.949-7.123,2.231-14.673,2.231-14.91c0-0.381,0.048-1.141,0.95-1.141 c0.949,0,5.128,1.425,5.128,3.135C130.237,17.706,126.77,28.533,126.77,39.075z M121.12,35.514c-0.76,0.047-1.52-0.096-1.52-0.57 c0-1.045,1.092-4.891-0.665-4.891c-3.514,0-6.41,8.404-6.41,17.142c0,1.758,0.997,4.606,2.422,4.606 c1.424,0,5.936-9.925,5.936-12.394C120.882,38.41,120.977,37.08,121.12,35.514z"/>
        <path fill="#54A4CE" d="M150.557,30.1c0,3.941-0.997,7.74-3.372,7.74c-2.422,0-4.179-0.949-4.179-1.994s0.808-5.128,0.808-5.128 s-5.509,10.969-5.889,17.712c0.522,3.466,1.235,4.368,1.235,5.176c0,1.282-7.788,3.656-7.788-14.673 c0-4.844,0.617-11.919,2.232-11.919c3.181,0,4.653,1.662,4.653,3.656c0,1.946-0.95,4.321-0.95,7.93 c0,1.757,0.048,3.276,0.143,4.606c1.234-6.221,5.224-16.905,7.408-16.905C147.47,26.301,150.557,26.159,150.557,30.1z"/>
        <path fill="#54A4CE" d="M179.376,36.368c-0.237,1.092-4.891,17.427-8.927,18.852c-0.143,0.095-0.428,0.143-0.76,0.143 c-4.464,0-5.556-9.26-5.888-9.26c-0.381,0-2.185,7.218-5.937,7.218c-3.751,0-6.79-2.517-6.79-9.117 c0-6.221,3.419-16.383,10.447-16.383c4.891,0,8.357,0,8.357,6.934c0,0.664-1.71,1.234-1.71,0.189 c0-1.092-0.332-4.938-2.089-4.938c-4.654,0-8.785,8.452-8.785,17.189c0,1.758,0.189,4.606,1.614,4.606s4.416-9.925,4.416-12.394 c0-0.95,0-2.659,2.85-2.659c2.896,0,4.083,1.329,4.083,2.327c0,0.284,0,0.521,0,0.76c0.143,3.229-0.142,12.346,1.425,12.346 c0.997,0,6.221-15.006,6.554-16.05C178.522,35.134,179.615,35.181,179.376,36.368z"/>
      </g>
    </g>
    <g>
      <path fill="#515151" d="M80.433,68.905v3.12h-3.848v-3.328c0-3.276-1.3-5.252-4.265-5.252c-2.912,0-4.264,1.976-4.264,5.252 v19.241c0,3.275,1.352,5.252,4.264,5.252c2.965,0,4.265-1.977,4.265-5.252v-7.28h-3.744v-3.641h7.592V87.73 c0,5.512-2.6,9.152-8.216,9.152c-5.564,0-8.164-3.641-8.164-9.152V68.905c0-5.512,2.6-9.152,8.164-9.152 C77.833,59.753,80.433,63.394,80.433,68.905z"/>
      <path fill="#515151" d="M88.337,89.187l-1.404,7.332h-3.744l6.968-36.401h5.877l6.968,36.401h-4.056l-1.404-7.332H88.337z M88.857,85.702h8.112l-4.107-21.009L88.857,85.702z"/>
      <path fill="#515151" d="M106.173,96.519V60.117h4.056v32.709h10.4v3.692H106.173z"/>
      <path fill="#515151" d="M123.697,96.519V60.117h4.056v32.709h10.4v3.692H123.697z"/>
      <path fill="#515151" d="M145.329,89.187l-1.404,7.332h-3.744l6.969-36.401h5.876l6.968,36.401h-4.056l-1.404-7.332H145.329z M145.848,85.702h8.112l-4.108-21.009L145.848,85.702z"/>
      <path fill="#515151" d="M171.276,60.117c5.721,0,8.112,2.912,8.112,8.32v2.964c0,4.004-1.404,6.5-4.524,7.488 c3.328,0.988,4.576,3.692,4.576,7.593v5.668c0,1.612,0.053,3.12,0.729,4.368h-4.108c-0.468-1.04-0.676-1.977-0.676-4.42v-5.721 c0-4.107-1.925-5.408-5.305-5.408h-2.86v15.549h-4.056V60.117H171.276z M170.236,77.278c3.224,0,5.148-1.041,5.148-4.992v-3.484 c0-3.276-1.196-4.992-4.212-4.992h-3.953v13.469H170.236z"/>
      <path fill="#515151" d="M192.18,60.117c5.668,0,8.269,3.433,8.269,9.048v18.357c0,5.564-2.601,8.996-8.269,8.996h-8.528V60.117 H192.18z M192.128,92.826c2.912,0,4.315-1.819,4.315-5.147V68.958c0-3.328-1.403-5.148-4.367-5.148h-4.369v29.017H192.128z"/>
      <path fill="#515151" d="M203.932,68.905c0-5.564,2.756-9.152,8.32-9.152c5.615,0,8.372,3.588,8.372,9.152V87.73 c0,5.512-2.757,9.152-8.372,9.152c-5.564,0-8.32-3.641-8.32-9.152V68.905z M207.936,87.938c0,3.328,1.404,5.252,4.316,5.252 c2.964,0,4.315-1.924,4.315-5.252V68.697c0-3.276-1.352-5.252-4.315-5.252c-2.912,0-4.316,1.976-4.316,5.252V87.938z"/>
    </g>
  </g>
  <g id="Capa_1"/>
</svg>